<!-- Generator: Adobe Illustrator 22.1.0, SVG Export Plug-In  -->
<svg version="1.1"
	 xmlns="http://www.w3.org/2000/svg" xmlns:xlink="http://www.w3.org/1999/xlink" xmlns:a="http://ns.adobe.com/AdobeSVGViewerExtensions/3.0/"
	 x="0px" y="0px" width="770.314px" height="343.147px" viewBox="0 0 770.314 343.147"
	 style="enable-background:new 0 0 770.314 343.147;" xml:space="preserve">
<style type="text/css">
	.st0{fill:#1A6E63;}
	.st1{opacity:0.75;}
	.st2{fill:#FFFFFF;}
</style>
<defs>
</defs>
<polygon class="st0" points="0,343.147 770.314,343.147 770.314,0 0,343.147 "/>
<g class="st1">
	<path class="st2" d="M309.651,262.751h-12.215l-2.536,8.126h-7.893l12.707-37.68h7.738l12.655,37.68h-7.893L309.651,262.751z
		 M299.299,256.825h8.514l-4.167-13.275h-0.155L299.299,256.825z"/>
	<path class="st2" d="M351.704,258.404l0.052,0.155c0.069,4.021-1.156,7.168-3.675,9.445c-2.519,2.277-5.996,3.416-10.429,3.416
		c-4.521,0-8.169-1.453-10.947-4.36c-2.778-2.906-4.167-6.663-4.167-11.271v-7.479c0-4.589,1.354-8.346,4.063-11.271
		c2.708-2.924,6.263-4.386,10.662-4.386c4.589,0,8.178,1.121,10.766,3.363c2.588,2.243,3.847,5.4,3.778,9.473l-0.052,0.154h-7.35
		c0-2.415-0.582-4.213-1.747-5.396c-1.164-1.182-2.963-1.772-5.396-1.772c-2.26,0-4.024,0.91-5.292,2.73
		c-1.269,1.82-1.902,4.171-1.902,7.052v7.53c0,2.898,0.668,5.263,2.006,7.092c1.336,1.828,3.196,2.742,5.577,2.742
		c2.26,0,3.947-0.59,5.059-1.772c1.113-1.182,1.669-2.997,1.669-5.447H351.704z"/>
	<path class="st2" d="M385.424,258.404l0.052,0.155c0.069,4.021-1.156,7.168-3.675,9.445c-2.519,2.277-5.996,3.416-10.429,3.416
		c-4.521,0-8.169-1.453-10.947-4.36c-2.778-2.906-4.167-6.663-4.167-11.271v-7.479c0-4.589,1.354-8.346,4.063-11.271
		c2.708-2.924,6.263-4.386,10.662-4.386c4.589,0,8.178,1.121,10.766,3.363c2.588,2.243,3.847,5.4,3.778,9.473l-0.052,0.154h-7.35
		c0-2.415-0.582-4.213-1.747-5.396c-1.164-1.182-2.963-1.772-5.396-1.772c-2.26,0-4.024,0.91-5.292,2.73
		c-1.269,1.82-1.902,4.171-1.902,7.052v7.53c0,2.898,0.668,5.263,2.006,7.092c1.336,1.828,3.196,2.742,5.577,2.742
		c2.26,0,3.947-0.59,5.059-1.772c1.113-1.182,1.669-2.997,1.669-5.447H385.424z"/>
	<path class="st2" d="M421.37,255.428c0,4.641-1.458,8.467-4.374,11.477c-2.916,3.011-6.711,4.516-11.387,4.516
		c-4.658,0-8.437-1.509-11.335-4.528c-2.898-3.019-4.348-6.841-4.348-11.464v-6.781c0-4.605,1.445-8.423,4.334-11.451
		c2.89-3.027,6.655-4.541,11.296-4.541c4.675,0,8.479,1.514,11.413,4.541c2.933,3.028,4.399,6.846,4.399,11.451V255.428z
		 M413.839,248.596c0-2.934-0.733-5.34-2.2-7.221c-1.467-1.88-3.494-2.82-6.082-2.82c-2.554,0-4.542,0.94-5.965,2.82
		c-1.423,1.881-2.135,4.287-2.135,7.221v6.832c0,2.984,0.716,5.417,2.148,7.297c1.432,1.881,3.433,2.821,6.004,2.821
		c2.588,0,4.606-0.94,6.056-2.821c1.449-1.88,2.174-4.312,2.174-7.297V248.596z"/>
	<path class="st2" d="M446.835,260.965h0.155l9.679-27.768h9.86v37.68h-7.557v-25.724l-0.155-0.026l-9.316,25.75h-5.124
		l-9.316-25.801l-0.155,0.025v25.775h-7.557v-37.68h9.912L446.835,260.965z"/>
	<path class="st2" d="M492.951,260.965h0.155l9.679-27.768h9.86v37.68h-7.557v-25.724l-0.155-0.026l-9.316,25.75h-5.124
		l-9.316-25.801l-0.155,0.025v25.775h-7.557v-37.68h9.912L492.951,260.965z"/>
	<path class="st2" d="M550.066,255.428c0,4.641-1.458,8.467-4.374,11.477c-2.916,3.011-6.711,4.516-11.387,4.516
		c-4.658,0-8.437-1.509-11.335-4.528c-2.898-3.019-4.348-6.841-4.348-11.464v-6.781c0-4.605,1.445-8.423,4.334-11.451
		c2.89-3.027,6.655-4.541,11.296-4.541c4.675,0,8.479,1.514,11.413,4.541c2.933,3.028,4.399,6.846,4.399,11.451V255.428z
		 M542.535,248.596c0-2.934-0.733-5.34-2.2-7.221c-1.467-1.88-3.494-2.82-6.082-2.82c-2.554,0-4.542,0.94-5.965,2.82
		c-1.423,1.881-2.135,4.287-2.135,7.221v6.832c0,2.984,0.716,5.417,2.148,7.297c1.432,1.881,3.433,2.821,6.004,2.821
		c2.588,0,4.606-0.94,6.056-2.821c1.449-1.88,2.174-4.312,2.174-7.297V248.596z"/>
	<path class="st2" d="M556.044,270.877v-37.68h13.146c4.606,0,8.402,1.471,11.387,4.412c2.984,2.942,4.477,6.716,4.477,11.322v6.236
		c0,4.624-1.493,8.398-4.477,11.322c-2.985,2.925-6.78,4.387-11.387,4.387H556.044z M563.6,239.02v26.061h5.59
		c2.484,0,4.485-0.927,6.004-2.782c1.518-1.854,2.277-4.231,2.277-7.13v-6.288c0-2.881-0.759-5.244-2.277-7.091
		c-1.519-1.846-3.52-2.77-6.004-2.77H563.6z"/>
	<path class="st2" d="M610.208,262.751h-12.215l-2.536,8.126h-7.893l12.707-37.68h7.738l12.655,37.68h-7.893L610.208,262.751z
		 M599.857,256.825h8.514l-4.167-13.275h-0.155L599.857,256.825z"/>
	<path class="st2" d="M648.25,239.02h-10.766v31.857h-7.557V239.02h-10.61v-5.822h28.933V239.02z"/>
	<path class="st2" d="M660.465,270.877h-7.557v-37.68h7.557V270.877z"/>
	<path class="st2" d="M698.43,255.428c0,4.641-1.458,8.467-4.374,11.477c-2.916,3.011-6.711,4.516-11.387,4.516
		c-4.658,0-8.437-1.509-11.335-4.528c-2.898-3.019-4.348-6.841-4.348-11.464v-6.781c0-4.605,1.445-8.423,4.334-11.451
		c2.89-3.027,6.655-4.541,11.296-4.541c4.675,0,8.479,1.514,11.413,4.541c2.933,3.028,4.399,6.846,4.399,11.451V255.428z
		 M690.899,248.596c0-2.934-0.733-5.34-2.2-7.221c-1.467-1.88-3.494-2.82-6.082-2.82c-2.554,0-4.542,0.94-5.965,2.82
		c-1.423,1.881-2.135,4.287-2.135,7.221v6.832c0,2.984,0.716,5.417,2.148,7.297c1.432,1.881,3.433,2.821,6.004,2.821
		c2.588,0,4.606-0.94,6.056-2.821c1.449-1.88,2.174-4.312,2.174-7.297V248.596z"/>
	<path class="st2" d="M734.867,270.877h-7.557l-15.191-25.413l-0.155,0.026v25.387h-7.557v-37.68h7.557l15.191,25.387l0.155-0.025
		v-25.361h7.557V270.877z"/>
</g>
</svg>