<!-- Generator: Adobe Illustrator 22.1.0, SVG Export Plug-In  -->
<svg version="1.1"
	 xmlns="http://www.w3.org/2000/svg" xmlns:xlink="http://www.w3.org/1999/xlink" xmlns:a="http://ns.adobe.com/AdobeSVGViewerExtensions/3.0/"
	 x="0px" y="0px" width="128px" height="128px" viewBox="0 0 128 128" style="enable-background:new 0 0 128 128;"
	 xml:space="preserve">
<style type="text/css">
	.st0{fill:#FFFFFF;}
	.st1{fill:#0D988B;}
</style>
<defs>
</defs>
<rect id="instagram-back_1_" class="st0" width="128" height="128"/>
<path id="instagram-instagram_1_" class="st1" d="M91.57,58.483h-6.239c0.454,1.765,0.724,3.609,0.724,5.516
	c0,12.183-9.875,22.056-22.055,22.056c-12.18,0-22.054-9.873-22.054-22.056c0-1.907,0.27-3.75,0.725-5.516h-6.241v30.329
	c0,1.521,1.235,2.755,2.76,2.755h49.621c1.525,0,2.76-1.234,2.76-2.755V58.483z M91.57,39.186c0-1.522-1.234-2.757-2.76-2.757
	h-8.269c-1.522,0-2.757,1.235-2.757,2.757v8.272c0,1.522,1.234,2.757,2.757,2.757h8.269c1.525,0,2.76-1.235,2.76-2.757V39.186z
	 M64,50.215c-7.613,0-13.785,6.17-13.785,13.784c0,7.613,6.171,13.787,13.785,13.787c7.614,0,13.786-6.174,13.786-13.787
	C77.785,56.385,71.613,50.215,64,50.215 M91.57,99.84H36.429c-4.566,0-8.269-3.704-8.269-8.273V36.429
	c0-4.567,3.703-8.269,8.269-8.269H91.57c4.568,0,8.27,3.702,8.27,8.269v55.137C99.84,96.136,96.139,99.84,91.57,99.84"/>
</svg>