<!-- Generator: Adobe Illustrator 22.1.0, SVG Export Plug-In  -->
<svg version="1.1"
	 xmlns="http://www.w3.org/2000/svg" xmlns:xlink="http://www.w3.org/1999/xlink" xmlns:a="http://ns.adobe.com/AdobeSVGViewerExtensions/3.0/"
	 x="0px" y="0px" width="128px" height="128px" viewBox="0 0 128 128" style="enable-background:new 0 0 128 128;"
	 xml:space="preserve">
<style type="text/css">
	.st0{fill:#FFFFFF;}
	.st1{fill:#0D988B;}
</style>
<defs>
</defs>
<rect id="facebook-back_1_" class="st0" width="128" height="128"/>
<path id="facebook-facebook_1_" class="st1" d="M95.884,28.16H32.116c-2.185,0-3.956,1.771-3.956,3.956v63.768
	c0,2.185,1.771,3.956,3.956,3.956h34.33V72.082h-9.341V61.264h9.341v-7.978c0-9.259,5.654-14.3,13.914-14.3
	c3.956,0,7.355,0.294,8.347,0.426v9.675l-5.728,0.002c-4.492,0-5.361,2.135-5.361,5.267v6.907H88.33l-1.395,10.818h-9.317V99.84
	h18.266c2.185,0,3.956-1.771,3.956-3.956V32.116C99.84,29.931,98.068,28.16,95.884,28.16z"/>
</svg>