<!-- Generator: Adobe Illustrator 22.1.0, SVG Export Plug-In  -->
<svg version="1.1"
	 xmlns="http://www.w3.org/2000/svg" xmlns:xlink="http://www.w3.org/1999/xlink" xmlns:a="http://ns.adobe.com/AdobeSVGViewerExtensions/3.0/"
	 x="0px" y="0px" width="770.314px" height="343.147px" viewBox="0 0 770.314 343.147"
	 style="enable-background:new 0 0 770.314 343.147;" xml:space="preserve">
<style type="text/css">
	.st0{fill:#1A6E63;}
	.st1{opacity:0.75;}
	.st2{fill:#FFFFFF;}
</style>
<defs>
</defs>
<polygon class="st0" points="770.314,0 0,0 0,343.147 770.314,0 "/>
<g class="st1">
	<path class="st2" d="M80.897,111.819c-0.443,0.579-1.104,1.082-1.982,1.509s-2.012,0.64-3.398,0.64
		c-1.719,0-3.125-0.54-4.219-1.621s-1.641-2.483-1.641-4.209v-2.969c0-1.719,0.531-3.12,1.592-4.204s2.425-1.626,4.092-1.626
		c1.738,0,3.07,0.412,3.994,1.235s1.371,1.922,1.338,3.296l-0.02,0.059h-2.686c0-0.755-0.218-1.343-0.654-1.763
		s-1.071-0.63-1.904-0.63c-0.873,0-1.576,0.337-2.109,1.011s-0.801,1.541-0.801,2.603v2.988c0,1.074,0.273,1.95,0.82,2.627
		s1.279,1.016,2.197,1.016c0.677,0,1.212-0.068,1.606-0.205s0.698-0.31,0.913-0.518v-2.754h-2.734v-1.973h5.596V111.819z"/>
	<path class="st2" d="M91.444,107.512H86.17v4.062h6.27v2.188h-9.121V99.543h9.102v2.197h-6.25v3.574h5.273V107.512z"/>
	<path class="st2" d="M104.354,101.741h-4.062v12.021H97.44v-12.021h-4.004v-2.197h10.918V101.741z"/>
	<path class="st2" d="M115.985,101.741h-4.062v12.021h-2.852v-12.021h-4.004v-2.197h10.918V101.741z"/>
	<path class="st2" d="M120.594,113.762h-2.852V99.543h2.852V113.762z"/>
	<path class="st2" d="M134.91,113.762h-2.852l-5.732-9.59l-0.059,0.01v9.58h-2.852V99.543h2.852l5.732,9.58l0.059-0.01v-9.57h2.852
		V113.762z"/>
	<path class="st2" d="M148.426,111.819c-0.443,0.579-1.104,1.082-1.982,1.509s-2.012,0.64-3.398,0.64
		c-1.719,0-3.125-0.54-4.219-1.621s-1.641-2.483-1.641-4.209v-2.969c0-1.719,0.531-3.12,1.592-4.204s2.425-1.626,4.092-1.626
		c1.738,0,3.07,0.412,3.994,1.235s1.371,1.922,1.338,3.296l-0.02,0.059h-2.686c0-0.755-0.218-1.343-0.654-1.763
		s-1.071-0.63-1.904-0.63c-0.873,0-1.576,0.337-2.109,1.011s-0.801,1.541-0.801,2.603v2.988c0,1.074,0.273,1.95,0.82,2.627
		s1.279,1.016,2.197,1.016c0.677,0,1.212-0.068,1.606-0.205s0.698-0.31,0.913-0.518v-2.754h-2.734v-1.973h5.596V111.819z"/>
	<path class="st2" d="M165.74,101.741h-4.062v12.021h-2.852v-12.021h-4.004v-2.197h10.918V101.741z"/>
	<path class="st2" d="M178.797,113.762h-2.852v-5.908h-5.791v5.908h-2.852V99.543h2.852v6.113h5.791v-6.113h2.852V113.762z"/>
	<path class="st2" d="M189.539,107.512h-5.273v4.062h6.27v2.188h-9.121V99.543h9.102v2.197h-6.25v3.574h5.273V107.512z"/>
	<path class="st2" d="M195.389,108.079v5.684h-2.852V99.543h4.922c1.621,0,2.889,0.369,3.804,1.108s1.372,1.77,1.372,3.091
		c0,0.729-0.194,1.359-0.581,1.89s-0.952,0.959-1.694,1.284c0.84,0.247,1.444,0.661,1.812,1.24s0.552,1.296,0.552,2.148v1.045
		c0,0.397,0.054,0.812,0.161,1.245s0.292,0.754,0.552,0.962v0.205h-2.939c-0.26-0.208-0.428-0.554-0.503-1.035
		s-0.112-0.947-0.112-1.396v-1.006c0-0.71-0.194-1.262-0.581-1.655s-0.936-0.591-1.646-0.591H195.389z M195.389,105.881h2.021
		c0.801,0,1.396-0.169,1.787-0.508s0.586-0.84,0.586-1.504c0-0.651-0.197-1.169-0.591-1.553s-0.972-0.576-1.733-0.576h-2.07V105.881
		z"/>
	<path class="st2" d="M213.406,107.512h-5.273v4.062h6.27v2.188h-9.121V99.543h9.102v2.197h-6.25v3.574h5.273V107.512z"/>
</g>
</svg>