<!-- Generator: Adobe Illustrator 22.1.0, SVG Export Plug-In  -->
<svg version="1.1"
	 xmlns="http://www.w3.org/2000/svg" xmlns:xlink="http://www.w3.org/1999/xlink" xmlns:a="http://ns.adobe.com/AdobeSVGViewerExtensions/3.0/"
	 x="0px" y="0px" width="770.314px" height="343.147px" viewBox="0 0 770.314 343.147"
	 style="enable-background:new 0 0 770.314 343.147;" xml:space="preserve">
<style type="text/css">
	.st0{fill:#1A6E63;}
	.st1{opacity:0.75;}
	.st2{fill:#FFFFFF;}
</style>
<defs>
</defs>
<polygon class="st0" points="0,343.147 770.314,343.147 770.314,0 0,343.147 "/>
<g class="st1">
	<path class="st2" d="M601.233,201.408c0,1.751-0.55,3.195-1.65,4.331s-2.533,1.704-4.297,1.704c-1.758,0-3.184-0.569-4.277-1.709
		s-1.641-2.581-1.641-4.326v-2.559c0-1.738,0.545-3.179,1.636-4.321s2.511-1.714,4.263-1.714c1.764,0,3.2,0.571,4.307,1.714
		s1.66,2.583,1.66,4.321V201.408z M598.391,198.83c0-1.106-0.277-2.015-0.83-2.725s-1.318-1.064-2.295-1.064
		c-0.963,0-1.714,0.354-2.251,1.064s-0.806,1.618-0.806,2.725v2.578c0,1.126,0.27,2.044,0.811,2.754s1.295,1.064,2.266,1.064
		c0.977,0,1.738-0.354,2.285-1.064s0.82-1.628,0.82-2.754V198.83z"/>
	<path class="st2" d="M614.983,207.238h-2.852l-5.732-9.59l-0.059,0.01v9.58h-2.852v-14.219h2.852l5.732,9.58l0.059-0.01v-9.57
		h2.852V207.238z"/>
	<path class="st2" d="M628.264,202.531l0.02,0.059c0.026,1.517-0.436,2.705-1.387,3.564s-2.262,1.289-3.936,1.289
		c-1.706,0-3.083-0.549-4.131-1.646s-1.572-2.515-1.572-4.253v-2.822c0-1.731,0.511-3.149,1.533-4.253s2.363-1.655,4.023-1.655
		c1.732,0,3.086,0.423,4.062,1.27s1.452,2.038,1.426,3.574l-0.02,0.059h-2.773c0-0.911-0.22-1.59-0.659-2.036
		s-1.118-0.669-2.036-0.669c-0.853,0-1.519,0.344-1.997,1.03s-0.718,1.574-0.718,2.661v2.842c0,1.094,0.252,1.985,0.757,2.676
		s1.206,1.035,2.104,1.035c0.853,0,1.489-0.223,1.909-0.669s0.63-1.131,0.63-2.056H628.264z"/>
	<path class="st2" d="M638.449,200.988h-5.273v4.062h6.27v2.188h-9.121v-14.219h9.102v2.197h-6.25v3.574h5.273V200.988z"/>
	<path class="st2" d="M651.447,199.572h0.059l3.105-6.553h3.125l-4.873,9.219v5h-2.852v-5.146l-4.795-9.072h3.125L651.447,199.572z"
		/>
	<path class="st2" d="M670.373,201.408c0,1.751-0.55,3.195-1.65,4.331s-2.533,1.704-4.297,1.704c-1.758,0-3.184-0.569-4.277-1.709
		s-1.641-2.581-1.641-4.326v-2.559c0-1.738,0.545-3.179,1.636-4.321s2.511-1.714,4.263-1.714c1.764,0,3.2,0.571,4.307,1.714
		s1.66,2.583,1.66,4.321V201.408z M667.531,198.83c0-1.106-0.277-2.015-0.83-2.725s-1.318-1.064-2.295-1.064
		c-0.963,0-1.714,0.354-2.251,1.064s-0.806,1.618-0.806,2.725v2.578c0,1.126,0.27,2.044,0.811,2.754s1.295,1.064,2.266,1.064
		c0.977,0,1.738-0.354,2.285-1.064s0.82-1.628,0.82-2.754V198.83z"/>
	<path class="st2" d="M683.899,193.019v9.307c0,1.602-0.531,2.854-1.592,3.76s-2.438,1.357-4.131,1.357
		c-1.686,0-3.055-0.452-4.106-1.357s-1.577-2.158-1.577-3.76v-9.307h2.861v9.307c0,0.95,0.254,1.677,0.762,2.178
		s1.195,0.752,2.061,0.752c0.879,0,1.576-0.251,2.09-0.752s0.771-1.228,0.771-2.178v-9.307H683.899z"/>
	<path class="st2" d="M689.016,195.549l-0.996,2.783h-1.406v-5.312h2.402V195.549z"/>
	<path class="st2" d="M694.66,201.554v5.684h-2.852v-14.219h4.922c1.621,0,2.889,0.369,3.804,1.108s1.372,1.77,1.372,3.091
		c0,0.729-0.194,1.359-0.581,1.89s-0.952,0.959-1.694,1.284c0.84,0.247,1.444,0.661,1.812,1.24s0.552,1.296,0.552,2.148v1.045
		c0,0.397,0.054,0.812,0.161,1.245s0.292,0.754,0.552,0.962v0.205h-2.939c-0.26-0.208-0.428-0.554-0.503-1.035
		s-0.112-0.947-0.112-1.396v-1.006c0-0.71-0.194-1.262-0.581-1.655s-0.936-0.591-1.646-0.591H694.66z M694.66,199.357h2.021
		c0.801,0,1.396-0.169,1.787-0.508s0.586-0.84,0.586-1.504c0-0.651-0.197-1.169-0.591-1.553s-0.972-0.576-1.733-0.576h-2.07V199.357
		z"/>
	<path class="st2" d="M712.678,200.988h-5.273v4.062h6.27v2.188h-9.121v-14.219h9.102v2.197h-6.25v3.574h5.273V200.988z"/>
	<path class="st2" d="M599.641,219.217h-4.062v12.021h-2.852v-12.021h-4.004v-2.197h10.918V219.217z"/>
	<path class="st2" d="M612.697,231.238h-2.852v-5.908h-5.791v5.908h-2.852v-14.219h2.852v6.113h5.791v-6.113h2.852V231.238z"/>
	<path class="st2" d="M623.44,224.988h-5.273v4.062h6.27v2.188h-9.121v-14.219h9.102v2.197h-6.25v3.574h5.273V224.988z"/>
	<path class="st2" d="M629.289,225.554v5.684h-2.852v-14.219h4.922c1.621,0,2.889,0.369,3.804,1.108s1.372,1.77,1.372,3.091
		c0,0.729-0.194,1.359-0.581,1.89s-0.952,0.959-1.694,1.284c0.84,0.247,1.444,0.661,1.812,1.24s0.552,1.296,0.552,2.148v1.045
		c0,0.397,0.054,0.812,0.161,1.245s0.292,0.754,0.552,0.962v0.205h-2.939c-0.26-0.208-0.428-0.554-0.503-1.035
		s-0.112-0.947-0.112-1.396v-1.006c0-0.71-0.194-1.262-0.581-1.655s-0.936-0.591-1.646-0.591H629.289z M629.289,223.357h2.021
		c0.801,0,1.396-0.169,1.787-0.508s0.586-0.84,0.586-1.504c0-0.651-0.197-1.169-0.591-1.553s-0.972-0.576-1.733-0.576h-2.07V223.357
		z"/>
	<path class="st2" d="M647.307,224.988h-5.273v4.062h6.27v2.188h-9.121v-14.219h9.102v2.197h-6.25v3.574h5.273V224.988z"/>
</g>
</svg>