<!-- Generator: Adobe Illustrator 22.1.0, SVG Export Plug-In  -->
<svg version="1.1"
	 xmlns="http://www.w3.org/2000/svg" xmlns:xlink="http://www.w3.org/1999/xlink" xmlns:a="http://ns.adobe.com/AdobeSVGViewerExtensions/3.0/"
	 x="0px" y="0px" width="770.314px" height="343.147px" viewBox="0 0 770.314 343.147"
	 style="enable-background:new 0 0 770.314 343.147;" xml:space="preserve">
<style type="text/css">
	.st0{fill:#1A6E63;}
	.st1{opacity:0.75;}
	.st2{fill:#FFFFFF;}
</style>
<defs>
</defs>
<polygon class="st0" points="770.314,0 0,0 0,343.147 770.314,0 "/>
<g class="st1">
	<path class="st2" d="M102.601,76.62H83.304v57.102H69.759V76.62H50.741V66.183h51.86V76.62z"/>
	<path class="st2" d="M124.496,133.722h-13.545V66.183h13.545V133.722z"/>
	<path class="st2" d="M188.556,111.363l0.093,0.278c0.123,7.206-2.072,12.85-6.587,16.932c-4.515,4.082-10.747,6.123-18.694,6.123
		c-8.103,0-14.643-2.605-19.622-7.816c-4.979-5.211-7.468-11.945-7.468-20.201V93.273c0-8.226,2.427-14.96,7.283-20.201
		c4.855-5.242,11.226-7.863,19.111-7.863c8.226,0,14.658,2.011,19.297,6.031c4.639,4.02,6.896,9.679,6.772,16.977l-0.093,0.279
		h-13.174c0-4.33-1.044-7.554-3.131-9.672s-5.311-3.178-9.672-3.178c-4.052,0-7.213,1.632-9.486,4.894
		c-2.273,3.264-3.409,7.477-3.409,12.641v13.499c0,5.195,1.198,9.432,3.595,12.709c2.396,3.278,5.729,4.918,9.996,4.918
		c4.051,0,7.074-1.06,9.069-3.178s2.992-5.373,2.992-9.765H188.556z"/>
	<path class="st2" d="M216.852,105.519h-4.963v28.203h-13.545V66.183h13.545v27.6h3.804l18.508-27.6h16.746l-23.379,31.404
		l25.188,36.135h-17.256L216.852,105.519z"/>
	<path class="st2" d="M297.472,104.034h-25.049v19.297h29.781v10.391h-43.325V66.183h43.233V76.62h-29.688v16.977h25.049V104.034z"
		/>
	<path class="st2" d="M358.795,76.62h-19.297v57.102h-13.545V76.62h-19.019V66.183h51.86V76.62z"/>
	<path class="st2" d="M400.682,116.095c0-2.598-0.905-4.686-2.713-6.262c-1.81-1.578-4.987-3.062-9.533-4.453
		c-7.793-2.351-13.708-5.118-17.743-8.304c-4.036-3.185-6.054-7.53-6.054-13.034c0-5.536,2.273-10.059,6.819-13.568
		s10.344-5.266,17.395-5.266c7.483,0,13.506,1.887,18.067,5.66c4.562,3.772,6.765,8.721,6.61,14.844l-0.093,0.277h-13.127
		c0-3.37-1.021-5.96-3.062-7.77c-2.041-1.809-4.902-2.713-8.582-2.713c-3.34,0-5.922,0.804-7.747,2.412
		c-1.825,1.607-2.737,3.664-2.737,6.169c0,2.289,0.989,4.168,2.969,5.636c1.979,1.47,5.396,3.023,10.251,4.662
		c7.422,2.104,13.081,4.848,16.978,8.233c3.896,3.387,5.845,7.848,5.845,13.383c0,5.783-2.258,10.345-6.772,13.685
		c-4.516,3.34-10.483,5.01-17.905,5.01c-7.268,0-13.506-1.81-18.717-5.428s-7.739-9.015-7.584-16.189l0.093-0.277h13.127
		c0,3.988,1.175,6.927,3.525,8.812c2.35,1.887,5.535,2.83,9.556,2.83c3.618,0,6.378-0.758,8.28-2.273
		C399.732,120.656,400.682,118.631,400.682,116.095z"/>
</g>
</svg>