<!-- Generator: Adobe Illustrator 22.1.0, SVG Export Plug-In  -->
<svg version="1.1"
	 xmlns="http://www.w3.org/2000/svg" xmlns:xlink="http://www.w3.org/1999/xlink" xmlns:a="http://ns.adobe.com/AdobeSVGViewerExtensions/3.0/"
	 x="0px" y="0px" width="770.314px" height="343.147px" viewBox="0 0 770.314 343.147"
	 style="enable-background:new 0 0 770.314 343.147;" xml:space="preserve">
<style type="text/css">
	.st0{fill:#1A6E63;}
	.st1{opacity:0.75;}
	.st2{fill:#FFFFFF;}
</style>
<defs>
</defs>
<polygon class="st0" points="770.314,0 0,0 0,343.147 770.314,0 "/>
<g class="st1">
	<path class="st2" d="M55.544,128.374c-1.173,1.536-2.924,2.869-5.253,3.999s-5.331,1.694-9.006,1.694
		c-4.555,0-8.281-1.432-11.18-4.295c-2.898-2.864-4.348-6.582-4.348-11.154v-7.867c0-4.555,1.406-8.269,4.218-11.141
		c2.812-2.873,6.426-4.309,10.843-4.309c4.606,0,8.134,1.091,10.584,3.273c2.45,2.183,3.631,5.094,3.545,8.734l-0.052,0.154H47.78
		c0-2.001-0.578-3.558-1.734-4.671c-1.156-1.112-2.838-1.669-5.046-1.669c-2.312,0-4.175,0.893-5.59,2.679
		c-1.415,1.785-2.122,4.085-2.122,6.896v7.919c0,2.847,0.725,5.167,2.174,6.961c1.449,1.795,3.39,2.691,5.823,2.691
		c1.794,0,3.213-0.181,4.257-0.543c1.043-0.362,1.85-0.819,2.419-1.371v-7.299h-7.246v-5.227h14.829V128.374z"/>
	<path class="st2" d="M83.493,116.962H69.519v10.766h16.614v5.797H61.962v-37.68h24.119v5.822H69.519v9.473h13.975V116.962z"/>
	<path class="st2" d="M117.705,101.667H106.94v31.857h-7.557v-31.857h-10.61v-5.822h28.933V101.667z"/>
	<path class="st2" d="M148.527,101.667h-10.766v31.857h-7.557v-31.857h-10.61v-5.822h28.933V101.667z"/>
	<path class="st2" d="M160.742,133.525h-7.557v-37.68h7.557V133.525z"/>
	<path class="st2" d="M198.68,133.525h-7.557l-15.191-25.413l-0.155,0.026v25.387h-7.557v-37.68h7.557l15.191,25.387l0.155-0.025
		V95.845h7.557V133.525z"/>
	<path class="st2" d="M234.497,128.374c-1.173,1.536-2.924,2.869-5.253,3.999s-5.331,1.694-9.006,1.694
		c-4.555,0-8.281-1.432-11.18-4.295c-2.898-2.864-4.348-6.582-4.348-11.154v-7.867c0-4.555,1.406-8.269,4.218-11.141
		c2.812-2.873,6.426-4.309,10.843-4.309c4.606,0,8.134,1.091,10.584,3.273c2.45,2.183,3.631,5.094,3.545,8.734l-0.052,0.154h-7.117
		c0-2.001-0.578-3.558-1.734-4.671c-1.156-1.112-2.838-1.669-5.046-1.669c-2.312,0-4.175,0.893-5.59,2.679
		c-1.415,1.785-2.122,4.085-2.122,6.896v7.919c0,2.847,0.725,5.167,2.174,6.961c1.449,1.795,3.39,2.691,5.823,2.691
		c1.794,0,3.213-0.181,4.257-0.543c1.043-0.362,1.85-0.819,2.419-1.371v-7.299h-7.246v-5.227h14.829V128.374z"/>
	<path class="st2" d="M280.38,101.667h-10.766v31.857h-7.557v-31.857h-10.61v-5.822h28.933V101.667z"/>
	<path class="st2" d="M314.98,133.525h-7.557v-15.656h-15.346v15.656h-7.557v-37.68h7.557v16.2h15.346v-16.2h7.557V133.525z"/>
	<path class="st2" d="M343.447,116.962h-13.975v10.766h16.614v5.797h-24.171v-37.68h24.119v5.822h-16.562v9.473h13.975V116.962z"/>
	<path class="st2" d="M358.948,118.463v15.062h-7.557v-37.68h13.043c4.296,0,7.656,0.979,10.08,2.938
		c2.423,1.958,3.636,4.688,3.636,8.19c0,1.933-0.514,3.602-1.54,5.008s-2.523,2.54-4.49,3.403c2.226,0.655,3.826,1.751,4.8,3.286
		c0.975,1.536,1.462,3.434,1.462,5.693v2.769c0,1.053,0.142,2.153,0.427,3.3c0.284,1.147,0.771,1.997,1.462,2.55v0.543h-7.79
		c-0.69-0.552-1.135-1.466-1.333-2.743c-0.199-1.276-0.298-2.511-0.298-3.7v-2.666c0-1.88-0.514-3.343-1.54-4.387
		c-1.026-1.043-2.48-1.565-4.36-1.565H358.948z M358.948,112.64h5.357c2.122,0,3.701-0.448,4.736-1.346
		c1.035-0.896,1.553-2.225,1.553-3.984c0-1.726-0.522-3.097-1.565-4.115c-1.044-1.018-2.575-1.527-4.594-1.527h-5.486V112.64z"/>
	<path class="st2" d="M406.695,116.962H392.72v10.766h16.614v5.797h-24.171v-37.68h24.119v5.822H392.72v9.473h13.975V116.962z"/>
</g>
</svg>