<!-- Generator: Adobe Illustrator 22.1.0, SVG Export Plug-In  -->
<svg version="1.1"
	 xmlns="http://www.w3.org/2000/svg" xmlns:xlink="http://www.w3.org/1999/xlink" xmlns:a="http://ns.adobe.com/AdobeSVGViewerExtensions/3.0/"
	 x="0px" y="0px" width="770.314px" height="343.147px" viewBox="0 0 770.314 343.147"
	 style="enable-background:new 0 0 770.314 343.147;" xml:space="preserve">
<style type="text/css">
	.st0{fill:#1A6E63;}
	.st1{opacity:0.75;}
	.st2{fill:#FFFFFF;}
</style>
<defs>
</defs>
<polygon class="st0" points="770.314,0 0,0 0,343.147 770.314,0 "/>
<g class="st1">
	<path class="st2" d="M111.127,114.106H89.232l-4.546,14.565H70.538l22.776-67.539h13.87l22.683,67.539h-14.148L111.127,114.106z
		 M92.572,103.484h15.261l-7.468-23.797h-0.278L92.572,103.484z"/>
	<path class="st2" d="M136.361,128.671V61.132h22.126c7.947,0,14.148,1.554,18.601,4.662c4.453,3.107,6.68,7.723,6.68,13.846
		c0,3.093-0.805,5.861-2.412,8.304c-1.608,2.443-3.959,4.283-7.051,5.521c4.205,0.772,7.375,2.598,9.509,5.473
		c2.134,2.877,3.201,6.232,3.201,10.066c0,6.464-2.134,11.357-6.401,14.682s-10.314,4.986-18.137,4.986H136.361z M149.906,89.428
		h9.045c3.618,0,6.401-0.742,8.35-2.227s2.922-3.648,2.922-6.494c0-3.123-0.982-5.427-2.945-6.911
		c-1.964-1.484-4.894-2.227-8.791-2.227h-8.582V89.428z M149.906,98.798v19.482h12.571c3.587,0,6.324-0.78,8.21-2.343
		c1.886-1.561,2.83-3.873,2.83-6.935c0-3.277-0.928-5.799-2.783-7.561c-1.855-1.764-4.655-2.645-8.396-2.645H149.906z"/>
	<path class="st2" d="M251.539,100.978c0,8.319-2.614,15.177-7.839,20.573c-5.227,5.396-12.03,8.095-20.41,8.095
		c-8.35,0-15.122-2.706-20.317-8.118c-5.195-5.411-7.793-12.262-7.793-20.55V88.825c0-8.258,2.59-15.1,7.77-20.526
		c5.179-5.428,11.928-8.142,20.248-8.142c8.38,0,15.199,2.714,20.457,8.142c5.257,5.427,7.886,12.269,7.886,20.526V100.978z
		 M238.041,88.732c0-5.257-1.315-9.57-3.943-12.941c-2.629-3.37-6.262-5.057-10.901-5.057c-4.577,0-8.141,1.687-10.692,5.057
		c-2.552,3.371-3.827,7.685-3.827,12.941v12.246c0,5.351,1.283,9.711,3.85,13.082c2.566,3.37,6.153,5.056,10.762,5.056
		c4.639,0,8.257-1.686,10.854-5.056c2.598-3.371,3.896-7.731,3.896-13.082V88.732z"/>
	<path class="st2" d="M315.785,61.132v44.207c0,7.607-2.521,13.561-7.561,17.858c-5.041,4.299-11.582,6.448-19.622,6.448
		c-8.01,0-14.512-2.149-19.506-6.448c-4.994-4.298-7.491-10.251-7.491-17.858V61.132h13.591v44.207
		c0,4.515,1.206,7.963,3.618,10.344c2.412,2.382,5.674,3.572,9.788,3.572c4.175,0,7.483-1.19,9.927-3.572
		c2.442-2.381,3.665-5.829,3.665-10.344V61.132H315.785z"/>
	<path class="st2" d="M374.603,71.57h-19.297v57.102h-13.545V71.57h-19.019V61.132h51.86V71.57z"/>
</g>
</svg>