<!-- Generator: Adobe Illustrator 22.1.0, SVG Export Plug-In  -->
<svg version="1.1"
	 xmlns="http://www.w3.org/2000/svg" xmlns:xlink="http://www.w3.org/1999/xlink" xmlns:a="http://ns.adobe.com/AdobeSVGViewerExtensions/3.0/"
	 x="0px" y="0px" width="128px" height="128px" viewBox="0 0 128 128" style="enable-background:new 0 0 128 128;"
	 xml:space="preserve">
<style type="text/css">
	.st0{fill:#FFFFFF;}
	.st1{fill:#0D988B;}
</style>
<defs>
</defs>
<rect id="twitter-back_1_" class="st0" width="128" height="128"/>
<path id="twitter-twitter_1_" class="st1" d="M99.84,41.77c-2.637,1.17-5.471,1.96-8.446,2.315c3.036-1.82,5.368-4.702,6.466-8.136
	c-2.841,1.685-5.988,2.909-9.338,3.568c-2.683-2.858-6.505-4.644-10.734-4.644c-8.122,0-14.707,6.584-14.707,14.705
	c0,1.153,0.13,2.275,0.381,3.352c-12.222-0.613-23.058-6.468-30.311-15.365c-1.266,2.172-1.991,4.698-1.991,7.394
	c0,5.102,2.596,9.603,6.542,12.24c-2.411-0.076-4.678-0.738-6.661-1.84c-0.001,0.062-0.001,0.123-0.001,0.186
	c0,7.125,5.069,13.068,11.797,14.42c-1.234,0.336-2.534,0.516-3.875,0.516c-0.948,0-1.869-0.093-2.767-0.264
	c1.872,5.842,7.303,10.094,13.738,10.213c-5.033,3.944-11.374,6.295-18.264,6.295c-1.187,0-2.358-0.069-3.508-0.205
	c6.508,4.173,14.238,6.606,22.543,6.606c27.05,0,41.842-22.408,41.842-41.842c0-0.638-0.015-1.271-0.043-1.902
	C95.375,47.309,97.869,44.719,99.84,41.77z"/>
</svg>